<svg id="visual" viewBox="0 0 960 540" width="960" height="540" xmlns="http://www.w3.org/2000/svg" xmlns:xlink="http://www.w3.org/1999/xlink" version="1.1"><rect x="0" y="0" width="960" height="540" fill="#fff"></rect><path d="M0 251L22.8 224.7C45.7 198.3 91.3 145.7 137 131C182.7 116.3 228.3 139.7 274 155C319.7 170.3 365.3 177.7 411.2 167.3C457 157 503 129 548.8 135.2C594.7 141.3 640.3 181.7 686 205.3C731.7 229 777.3 236 823 226.5C868.7 217 914.3 191 937.2 178L960 165L960 541L937.2 541C914.3 541 868.7 541 823 541C777.3 541 731.7 541 686 541C640.3 541 594.7 541 548.8 541C503 541 457 541 411.2 541C365.3 541 319.7 541 274 541C228.3 541 182.7 541 137 541C91.3 541 45.7 541 22.8 541L0 541Z" fill="#e5e5e5"></path><path d="M0 272L22.8 278.3C45.7 284.7 91.3 297.3 137 294.7C182.7 292 228.3 274 274 266.8C319.7 259.7 365.3 263.3 411.2 260.7C457 258 503 249 548.8 240.3C594.7 231.7 640.3 223.3 686 224.3C731.7 225.3 777.3 235.7 823 233.8C868.7 232 914.3 218 937.2 211L960 204L960 541L937.2 541C914.3 541 868.7 541 823 541C777.3 541 731.7 541 686 541C640.3 541 594.7 541 548.8 541C503 541 457 541 411.2 541C365.3 541 319.7 541 274 541C228.3 541 182.7 541 137 541C91.3 541 45.7 541 22.8 541L0 541Z" fill="#adaeb8"></path><path d="M0 266L22.8 266.5C45.7 267 91.3 268 137 286.3C182.7 304.7 228.3 340.3 274 350C319.7 359.7 365.3 343.3 411.2 341.8C457 340.3 503 353.7 548.8 349.2C594.7 344.7 640.3 322.3 686 302.3C731.7 282.3 777.3 264.7 823 264.5C868.7 264.3 914.3 281.7 937.2 290.3L960 299L960 541L937.2 541C914.3 541 868.7 541 823 541C777.3 541 731.7 541 686 541C640.3 541 594.7 541 548.8 541C503 541 457 541 411.2 541C365.3 541 319.7 541 274 541C228.3 541 182.7 541 137 541C91.3 541 45.7 541 22.8 541L0 541Z" fill="#787b8d"></path><path d="M0 350L22.8 352.2C45.7 354.3 91.3 358.7 137 372.2C182.7 385.7 228.3 408.3 274 416.5C319.7 424.7 365.3 418.3 411.2 404.3C457 390.3 503 368.7 548.8 356.2C594.7 343.7 640.3 340.3 686 340.5C731.7 340.7 777.3 344.3 823 346.8C868.7 349.3 914.3 350.7 937.2 351.3L960 352L960 541L937.2 541C914.3 541 868.7 541 823 541C777.3 541 731.7 541 686 541C640.3 541 594.7 541 548.8 541C503 541 457 541 411.2 541C365.3 541 319.7 541 274 541C228.3 541 182.7 541 137 541C91.3 541 45.7 541 22.8 541L0 541Z" fill="#464c64"></path><path d="M0 463L22.8 456.3C45.7 449.7 91.3 436.3 137 439.5C182.7 442.7 228.3 462.3 274 462.2C319.7 462 365.3 442 411.2 430.3C457 418.7 503 415.3 548.8 420.2C594.7 425 640.3 438 686 442.5C731.7 447 777.3 443 823 447.5C868.7 452 914.3 465 937.2 471.5L960 478L960 541L937.2 541C914.3 541 868.7 541 823 541C777.3 541 731.7 541 686 541C640.3 541 594.7 541 548.8 541C503 541 457 541 411.2 541C365.3 541 319.7 541 274 541C228.3 541 182.7 541 137 541C91.3 541 45.7 541 22.8 541L0 541Z" fill="#14213d"></path></svg>