<svg width="43" height="48" viewBox="0 0 43 48" fill="none" xmlns="http://www.w3.org/2000/svg">
<path fill-rule="evenodd" clip-rule="evenodd" d="M3.85185 43.2015L0 0H42.3257L38.4697 43.1944L21.1372 48L3.85185 43.2015Z" fill="#0071BC"/>
<path fill-rule="evenodd" clip-rule="evenodd" d="M21.1985 44.3245L35.1866 40.4764L38.464 3.59778H21.1985V44.3245Z" fill="#29ABE2"/>
<path fill-rule="evenodd" clip-rule="evenodd" d="M8.81689 19.4699L9.28089 24.7606L21.1984 19.4699V14.1706L8.81689 19.4699Z" fill="#B3B3B3"/>
<path fill-rule="evenodd" clip-rule="evenodd" d="M34.3975 8.51385L21.1985 14.1706V19.4699L33.9424 13.8046L34.3975 8.51385Z" fill="#E6E6E6"/>
<path fill-rule="evenodd" clip-rule="evenodd" d="M21.1982 33.3129L21.1573 33.319L15.247 31.7318L14.8609 27.5117H9.54175L10.284 35.8255L21.1561 38.8359L21.1982 38.8259V33.3129Z" fill="#E6E6E6"/>
<path fill-rule="evenodd" clip-rule="evenodd" d="M21.1985 19.4698V24.7606H27.6692L27.0811 31.6777L21.1985 33.3174V38.8301L32.0345 35.8197L33.4614 19.4698H21.1985Z" fill="white"/>
<path fill-rule="evenodd" clip-rule="evenodd" d="M21.1984 19.4698H8.81689L9.28089 24.7606H21.1984V19.4698Z" fill="#E6E6E6"/>
<path fill-rule="evenodd" clip-rule="evenodd" d="M21.1985 13.8046V8.51385H21.1447H7.87622L8.34572 13.8046H21.1985Z" fill="#E6E6E6"/>
<path fill-rule="evenodd" clip-rule="evenodd" d="M21.1985 8.51385V13.7382V13.8046H33.9424L34.3975 8.51385H21.1985Z" fill="white"/>
</svg>
