<svg width="16" height="16" viewBox="0 0 16 16" fill="none" xmlns="http://www.w3.org/2000/svg">
<path d="M16 8C16 12.4183 12.4183 16 8 16C3.58172 16 0 12.4183 0 8C0 3.58172 3.58172 0 8 0C12.4183 0 16 3.58172 16 8Z" fill="url(#paint0_linear_16_3)"/>
<path d="M10.6167 10.3215L10.7093 10.0893C10.9965 10.2038 11.3081 10.2621 11.6465 10.2621C11.8615 10.2621 12.0512 10.2509 12.2164 10.2294C12.384 10.2047 12.5336 10.1682 12.6663 10.121L12.668 10.1204L12.668 10.1205C12.8057 10.0726 12.9305 10.0136 13.0432 9.94383C13.1639 9.868 13.2844 9.77761 13.4048 9.67201L13.4085 9.6687L13.4086 9.66874C13.4991 9.59244 13.6137 9.53468 13.7483 9.53468C13.8777 9.53468 13.9899 9.58811 14.0749 9.67588L14.0747 9.67569L13.8954 9.8499L14.0752 9.67614L10.6167 10.3215ZM10.6167 10.3215L10.7102 10.0896C10.4273 9.9756 10.182 9.81148 9.97204 9.59642C9.76641 9.37889 9.59942 9.11054 9.47343 8.78698C9.35315 8.46921 9.29037 8.10069 9.29037 7.67751C9.29037 7.26036 9.35159 6.89402 9.46932 6.57502C9.58842 6.2523 9.75174 5.98484 9.95686 5.768C10.1659 5.55068 10.4138 5.38521 10.7031 5.2711L10.7032 5.27111L10.7052 5.27027C10.9944 5.15324 11.3176 5.09287 11.6781 5.09287C11.9847 5.09287 12.2301 5.12489 12.42 5.18246L12.42 5.18248L12.4233 5.18345C12.6324 5.24366 12.798 5.30942 12.9245 5.3784C13.066 5.45562 13.1746 5.52323 13.2535 5.58118L13.2535 5.58124L13.2584 5.58472C13.3633 5.6579 13.4925 5.72502 13.6327 5.72502C13.7141 5.72502 13.8113 5.71117 13.8983 5.65581L13.8983 5.65587L13.903 5.65276C13.962 5.61334 14.0131 5.56347 14.0532 5.50295L14.3841 5.0635L14.5218 4.88064L14.3518 4.72739C14.017 4.42568 13.6306 4.18798 13.1948 4.01371C12.7499 3.83578 12.2444 3.75 11.6833 3.75C11.1093 3.75 10.5784 3.84491 10.0938 4.03848C9.61214 4.22753 9.19413 4.49659 8.84294 4.84634L8.84293 4.84634L8.84198 4.8473C8.49437 5.19725 8.22584 5.6144 8.03551 6.09547C7.84401 6.57948 7.75 7.10782 7.75 7.67751C7.75 8.24604 7.84012 8.77326 8.02378 9.25641C8.20648 9.73704 8.46557 10.1543 8.8023 10.5048L8.8032 10.5057C9.1405 10.8531 9.54647 11.1227 10.0176 11.3155L10.0191 11.3161C10.4938 11.5067 11.0164 11.6 11.5835 11.6C12.2312 11.6 12.7977 11.5011 13.275 11.2934L13.5696 9.85993C13.44 9.97365 13.3087 10.0723 13.1756 10.1559C13.046 10.2362 12.9041 10.3031 12.75 10.3566C12.5993 10.4101 12.4329 10.4503 12.2508 10.477C12.0721 10.5004 11.8707 10.5121 11.6465 10.5121C11.2787 10.5121 10.9354 10.4486 10.6167 10.3215Z" fill="white" stroke="white" stroke-width="0.5"/>
<path d="M5.34955 7.6241C5.28119 7.54158 5.20882 7.46829 5.13194 7.40615C5.17698 7.36484 5.22163 7.31985 5.26591 7.27151L8.27019 4.17406L8.68149 3.75H8.09074H7.18759C7.04788 3.75 6.91406 3.76971 6.79444 3.81932C6.67001 3.87092 6.56404 3.95748 6.47367 4.06305L3.85247 6.77042L3.85237 6.77032L3.84676 6.77652C3.80044 6.82767 3.75549 6.85834 3.71265 6.87609C3.66536 6.89216 3.58628 6.90534 3.46486 6.90534H3.31285V4V3.75H3.06285H2H1.75V4V11.2V11.45H2H3.06285H3.31285V11.2V8.15398H3.54747C3.71043 8.15398 3.79682 8.17261 3.83297 8.18838L3.83291 8.18851L3.84077 8.19163C3.88097 8.20758 3.92867 8.23934 3.98178 8.29992L3.98163 8.30006L3.98865 8.30744L6.70035 11.1571C6.72826 11.1928 6.75707 11.2264 6.78687 11.2575L6.79836 11.2695L6.81133 11.2798C6.85315 11.3132 6.89843 11.3428 6.94639 11.369L6.95438 11.3734L6.96267 11.3772C7.01916 11.403 7.07946 11.4215 7.14159 11.4346L7.15112 11.4366L7.16078 11.4379C7.22583 11.4463 7.2977 11.45 7.37483 11.45H8.3H8.86975L8.48397 11.0307L5.34955 7.6241Z" fill="white" stroke="white" stroke-width="0.5"/>
<defs>
<linearGradient id="paint0_linear_16_3" x1="0" y1="8" x2="16" y2="8" gradientUnits="userSpaceOnUse">
<stop stop-color="#14213D"/>
<stop offset="1" stop-color="#FCA311"/>
</linearGradient>
</defs>
</svg>
