<svg width="36" height="48" viewBox="0 0 36 48" fill="none" xmlns="http://www.w3.org/2000/svg">
<path d="M0.5625 38.744L0.853083 38.3371L14.5991 12.2547L14.6281 11.9786L8.56858 0.596712C8.06091 -0.356729 6.6317 -0.115666 6.4651 0.951637L0.5625 38.744Z" fill="#FFC24A"/>
<path d="M0.733887 38.4337L0.953704 38.0051L14.5557 12.196L8.5113 0.767791C8.00895 -0.17566 6.73328 0.064845 6.56842 1.12096L0.733887 38.4337Z" fill="#FFA712"/>
<path d="M19.0456 20.588L23.5574 15.9672L19.0443 7.35175C18.6159 6.53623 17.4197 6.53388 16.9958 7.35175L14.5847 11.9502V12.3419L19.0456 20.588Z" fill="#F4BD62"/>
<path d="M18.965 20.3954L23.3513 15.9032L18.965 7.551C18.5485 6.75817 17.5367 6.6751 17.1246 7.47022L14.7006 12.14L14.6282 12.3787L18.965 20.3954Z" fill="#FFA50E"/>
<path d="M0.5625 38.744L0.694217 38.6116L1.17279 38.417L18.7621 20.8931L18.9849 20.2865L14.5971 11.9252L0.5625 38.744Z" fill="#F6820C"/>
<path d="M19.6089 47.5817L35.5276 38.7037L30.9818 10.7073C30.8396 9.83135 29.7649 9.48506 29.138 10.1131L0.5625 38.744L16.3899 47.5809C17.3902 48.1394 18.6084 48.1397 19.6089 47.5817Z" fill="#FDE068"/>
<path d="M35.385 38.6293L30.8736 10.8454C30.7325 9.97609 29.8389 9.61638 29.2167 10.2397L0.739014 38.6896L16.3926 47.4391C17.3852 47.9934 18.5942 47.9936 19.5871 47.4399L35.385 38.6293Z" fill="#FCCA3F"/>
<path d="M19.6089 47.3202C18.6084 47.8781 17.3902 47.8779 16.3899 47.3194L0.689981 38.6094L0.5625 38.744L16.3899 47.5809C17.3902 48.1394 18.6084 48.1397 19.6089 47.5817L35.5276 38.7037L35.4886 38.4639L19.6089 47.3202Z" fill="#EEAB37"/>
</svg>
