<svg width="48" height="48" viewBox="0 0 48 48" fill="none" xmlns="http://www.w3.org/2000/svg">
<g id="Type=Default" clip-path="url(#clip0_335_250)">
<path id="Shape" fill-rule="evenodd" clip-rule="evenodd" d="M0.5625 0.5625H47.4375V47.4375H0.5625V0.5625V0.5625Z" fill="#F7DF1E"/>
<path id="Shape_2" fill-rule="evenodd" clip-rule="evenodd" d="M12.8878 39.7347L16.475 37.5638C17.167 38.7908 17.7965 39.829 19.3066 39.829C20.7541 39.829 21.6666 39.2627 21.6666 37.0604V22.0827H26.0717V37.1226C26.0717 41.6851 23.3973 43.7618 19.4954 43.7618C15.9715 43.7618 13.926 41.9368 12.8877 39.7343" fill="black"/>
<path id="Shape_3" fill-rule="evenodd" clip-rule="evenodd" d="M28.4639 39.2627L32.0506 37.1859C32.9948 38.7279 34.222 39.8606 36.393 39.8606C38.2182 39.8606 39.3821 38.948 39.3821 37.6894C39.3821 36.179 38.1865 35.6441 36.1726 34.7633L35.0717 34.291C31.8935 32.9383 29.7852 31.2391 29.7852 27.652C29.7852 24.3481 32.3024 21.8308 36.2357 21.8308C39.0362 21.8308 41.05 22.8063 42.4972 25.3551L39.0674 27.5575C38.3122 26.2046 37.4944 25.6698 36.2358 25.6698C34.9457 25.6698 34.1276 26.4879 34.1276 27.5575C34.1276 28.8791 34.9457 29.4141 36.8334 30.2323L37.9346 30.7042C41.679 32.3091 43.7873 33.9451 43.7873 37.6264C43.7873 41.5913 40.6723 43.7622 36.4875 43.7622C32.397 43.7622 29.7538 41.8115 28.4639 39.2627" fill="black"/>
</g>
<defs>
<clipPath id="clip0_335_250">
<rect width="48" height="48" fill="white"/>
</clipPath>
</defs>
</svg>
