<svg width="40" height="40" viewBox="0 0 40 40" fill="none" xmlns="http://www.w3.org/2000/svg">
<path d="M40 20C40 31.0457 31.0457 40 20 40C8.95431 40 0 31.0457 0 20C0 8.95431 8.95431 0 20 0C31.0457 0 40 8.95431 40 20Z" fill="url(#paint0_linear_16_3)"/>
<path d="M35.7668 27.1023L36.0487 26.768L35.755 26.4441L34.7678 25.3555C34.7677 25.3554 34.7676 25.3553 34.7675 25.3551C34.5827 25.1505 34.3333 25.0198 34.0373 25.0198C33.7306 25.0198 33.471 25.1606 33.266 25.3456L33.266 25.3455L33.2586 25.3524C32.9602 25.633 32.6609 25.8735 32.361 26.0754C32.0785 26.2627 31.7671 26.4204 31.4251 26.5476L31.4215 26.549C31.0914 26.6747 30.7205 26.7714 30.3068 26.8368C29.8993 26.8937 29.4326 26.9232 28.9049 26.9232C28.0705 26.9232 27.2998 26.7692 26.5875 26.4651C25.8853 26.1617 25.2731 25.7235 24.7477 25.1467C24.2318 24.5621 23.8136 23.8414 23.4989 22.9752C23.1966 22.1199 23.0406 21.1328 23.0406 20.0066C23.0406 18.8966 23.1927 17.916 23.4881 17.0583C23.786 16.1935 24.1954 15.4745 24.7104 14.8914C25.2343 14.3078 25.8534 13.866 26.5717 13.5624L26.5717 13.5625L26.576 13.5606C27.2938 13.2493 28.0934 13.0899 28.9818 13.0899C29.7352 13.0899 30.3424 13.1741 30.8162 13.328L30.8162 13.3281L30.8233 13.3302C31.3375 13.4889 31.7488 13.6633 32.0656 13.8486C32.4134 14.0519 32.6831 14.2315 32.8813 14.3874L32.8812 14.3875L32.8911 14.3949C33.1389 14.5802 33.436 14.7439 33.7551 14.7439C33.9478 14.7439 34.167 14.7082 34.3576 14.5782L34.3576 14.5783L34.3669 14.5716C34.501 14.4756 34.6138 14.3563 34.7005 14.2149L35.5114 13.0612L35.7574 12.7112L35.4496 12.414C34.6434 11.6355 33.711 11.0202 32.656 10.5682C31.5817 10.108 30.3578 9.88461 28.9947 9.88461C27.6007 9.88461 26.3144 10.1316 25.1425 10.6332C23.9768 11.1234 22.969 11.8194 22.1244 12.7206L22.1244 12.7206L22.1226 12.7225C21.287 13.6238 20.6424 14.697 20.1853 15.9347C19.7262 17.1781 19.5 18.5371 19.5 20.0066C19.5 21.4738 19.717 22.8308 20.1575 24.0724C20.5963 25.3092 21.2182 26.3824 22.0272 27.2845L22.0289 27.2864C22.8394 28.1807 23.8175 28.8778 24.9574 29.3776L24.9605 29.3789C26.108 29.8727 27.3739 30.1154 28.7509 30.1154C30.3258 30.1154 31.6978 29.8577 32.8494 29.3206C33.9921 28.7916 34.9663 28.0516 35.7668 27.1023Z" fill="white" stroke="white"/>
<path d="M13.4133 19.5076C13.4071 19.5026 13.4009 19.4976 13.3946 19.4926C13.5549 19.3473 13.7138 19.1793 13.8714 18.991L21.2092 10.7164L21.9468 9.88461H20.8351H18.6296C18.2935 9.88461 17.9765 9.93666 17.6969 10.0635C17.4084 10.1943 17.1634 10.4137 16.9535 10.6827L10.5495 17.9173L10.544 17.9235L10.5387 17.9299C10.4122 18.0827 10.2876 18.1757 10.1686 18.2291C10.0423 18.2765 9.84023 18.3123 9.53874 18.3123H9.05703V10.3846V9.88461H8.55703H5.96155H5.46155V10.3846V29.6154V30.1154H5.96155H8.55703H9.05703V29.6154V21.3119H9.74046C10.1399 21.3119 10.3627 21.3613 10.4665 21.4108L10.4746 21.4146L10.4828 21.4182C10.5967 21.4676 10.7279 21.5647 10.87 21.742L10.8763 21.7498L10.8829 21.7574L17.5097 29.3743C17.5764 29.4681 17.6451 29.5557 17.7158 29.6364L17.7378 29.6614L17.7629 29.6834C17.859 29.7673 17.9642 29.8427 18.0769 29.9102L18.0934 29.92L18.1106 29.9286C18.2415 29.9939 18.3831 30.0417 18.5309 30.0758L18.5515 30.0805L18.5725 30.0835C18.7278 30.1057 18.9004 30.1154 19.0869 30.1154H21.3462H22.4202L21.7288 29.2935L14.072 20.1916C13.8673 19.9209 13.6486 19.69 13.4133 19.5076Z" fill="white" stroke="white"/>
<defs>
<linearGradient id="paint0_linear_16_3" x1="0" y1="20" x2="40" y2="20" gradientUnits="userSpaceOnUse">
<stop stop-color="#14213D"/>
<stop offset="1" stop-color="#FCA311"/>
</linearGradient>
</defs>
</svg>
