<svg width="208" height="208" viewBox="0 0 208 208" fill="none" xmlns="http://www.w3.org/2000/svg">
<path d="M208 104C208 161.438 161.438 208 104 208C46.5624 208 0 161.438 0 104C0 46.5624 46.5624 0 104 0C161.438 0 208 46.5624 208 104Z" fill="url(#paint0_linear_16_3)"/>
<path d="M184.664 139.244L184.382 139.578C180.42 144.277 175.602 147.939 169.932 150.563C164.29 153.195 157.475 154.5 149.505 154.5C142.595 154.5 136.299 153.283 130.625 150.842L130.622 150.84C124.955 148.356 120.115 144.902 116.107 140.479L116.105 140.477C112.098 136.01 108.997 130.673 106.798 124.474C104.597 118.271 103.5 111.456 103.5 104.034C103.5 96.6104 104.642 89.7932 106.934 83.5879C109.223 77.3882 112.437 72.0515 116.577 67.585L116.579 67.583C120.765 63.1166 125.761 59.6639 131.561 57.2257C137.368 54.7394 143.774 53.5 150.772 53.5C157.632 53.5 163.706 54.6238 168.984 56.8851C174.243 59.1381 178.876 62.1976 182.879 66.0635L183.187 66.3607L182.941 66.7107L178.682 72.7695C178.38 73.2793 177.979 73.7116 177.485 74.0652L177.476 74.0719L177.476 74.0718C176.962 74.4223 176.294 74.5683 175.526 74.5683C174.561 74.5683 173.473 74.0554 172.291 73.1718L172.281 73.1644L172.281 73.1643C171.149 72.2732 169.658 71.285 167.801 70.1996C165.975 69.1322 163.678 68.1676 160.9 67.3105L160.893 67.3084L160.893 67.3083C158.156 66.4193 154.764 65.9676 150.706 65.9676C145.829 65.9676 141.383 66.8437 137.36 68.5884L137.356 68.5903C133.332 70.2905 129.857 72.7722 126.926 76.039C124.039 79.3051 121.78 83.2954 120.152 88.0195C118.528 92.7364 117.711 98.0726 117.711 104.034C117.711 110.086 118.55 115.465 120.217 120.179C121.933 124.905 124.238 128.897 127.125 132.164C130.057 135.388 133.49 137.848 137.426 139.548C141.407 141.248 145.699 142.101 150.305 142.101C153.132 142.101 155.665 141.943 157.905 141.628C160.187 141.269 162.264 140.731 164.139 140.017L164.143 140.016C166.065 139.301 167.832 138.408 169.444 137.339C171.109 136.218 172.755 134.893 174.383 133.363L174.391 133.356L174.391 133.356C175.206 132.619 176.077 132.203 176.994 132.203C177.865 132.203 178.617 132.572 179.233 133.255L184.664 139.244ZM184.664 139.244L184.37 138.92L179.234 133.255L184.664 139.244Z" fill="white" stroke="white"/>
<path d="M65.9093 101.523C66.5565 101.147 67.1713 100.716 67.7533 100.232L67.7552 100.231C68.6669 99.4646 69.5948 98.5138 70.5399 97.3827L108.717 54.3317L109.454 53.5H108.343H96.8741C95.3331 53.5 93.9993 53.7399 92.8914 54.2425C91.7735 54.7495 90.7377 55.6459 89.7753 56.8912L56.4298 94.5618L56.4243 94.568L56.419 94.5744C55.5765 95.5922 54.6611 96.3048 53.6767 96.7337C52.6857 97.1188 51.3357 97.3241 49.6014 97.3241H44.9965V54V53.5H44.4965H31H30.5V54V154V154.5H31H44.4965H44.9965V154V108.722H50.6504C52.8196 108.722 54.3603 108.978 55.3301 109.441L55.3382 109.445L55.3465 109.448C56.3263 109.873 57.2672 110.628 58.1623 111.745L58.1686 111.753L58.1752 111.76L92.7037 151.448C93.0339 151.917 93.3663 152.343 93.701 152.725L93.723 152.75L93.7481 152.772C94.1455 153.119 94.5895 153.438 95.0788 153.731L95.0953 153.741L95.1124 153.75C95.62 154.003 96.1945 154.201 96.8319 154.348L96.8525 154.352L96.8735 154.355C97.5559 154.453 98.3498 154.5 99.2518 154.5H111H112.074L111.383 153.678L71.5312 106.305C70.5362 104.983 69.5079 103.906 68.4438 103.085C67.6636 102.449 66.8185 101.928 65.9093 101.523Z" fill="white" stroke="white"/>
<defs>
<linearGradient id="paint0_linear_16_3" x1="0" y1="104" x2="208" y2="104" gradientUnits="userSpaceOnUse">
<stop stop-color="#14213D"/>
<stop offset="1" stop-color="#FCA311"/>
</linearGradient>
</defs>
</svg>
