<svg width="16" height="10" viewBox="0 0 16 10" fill="none" xmlns="http://www.w3.org/2000/svg">
<path d="M1.43676 4.3959H1.9802C2.16879 4.3959 2.32016 4.37543 2.4343 4.33447C2.54845 4.28897 2.65267 4.21388 2.74696 4.10922L6.29792 0.423209C6.39718 0.304892 6.5014 0.222981 6.61058 0.177475C6.71977 0.131968 6.85376 0.109215 7.01258 0.109215H8.23345L4.16884 4.32082C4.06958 4.43003 3.9728 4.52105 3.87851 4.59386C3.78917 4.66212 3.6924 4.719 3.58818 4.76451C3.72217 4.80546 3.84377 4.86689 3.95295 4.94881C4.06213 5.02617 4.16884 5.12855 4.27306 5.25597L8.51633 9.89079H7.26568C7.17139 9.89079 7.0895 9.88623 7.02002 9.87713C6.9555 9.86348 6.89843 9.84528 6.8488 9.82253C6.79917 9.79522 6.75451 9.76564 6.7148 9.73379C6.68006 9.69738 6.64532 9.65643 6.61058 9.61092L2.93307 5.72696C2.83382 5.6132 2.72711 5.53356 2.61297 5.48805C2.49882 5.438 2.32512 5.41297 2.09186 5.41297H1.43676V9.89079H0V0.109215H1.43676V4.3959Z" fill="url(#paint0_linear_10_18)"/>
<path d="M15.2183 7.87031C15.2977 7.87031 15.3672 7.89989 15.4268 7.95904L16 8.5256C15.5633 8.98976 15.0322 9.35154 14.4069 9.61092C13.7865 9.87031 13.0347 10 12.1513 10C11.387 10 10.6922 9.87941 10.0669 9.63823C9.44153 9.39249 8.90802 9.0512 8.46632 8.61434C8.02462 8.17292 7.68218 7.64505 7.439 7.03072C7.19582 6.41638 7.07423 5.74062 7.07423 5.00341C7.07423 4.26621 7.20078 3.59044 7.45389 2.97611C7.70699 2.36178 8.06184 1.8339 8.51843 1.39249C8.97998 0.951082 9.53086 0.609784 10.1711 0.368601C10.8113 0.122867 11.5185 0 12.2927 0C13.052 0 13.722 0.111491 14.3027 0.334471C14.8833 0.557452 15.3945 0.860069 15.8362 1.24232L15.3598 1.84983C15.33 1.89534 15.2903 1.93402 15.2407 1.96587C15.196 1.99317 15.134 2.00683 15.0546 2.00683C14.9652 2.00683 14.8561 1.9636 14.727 1.87713C14.598 1.78612 14.4292 1.68601 14.2208 1.57679C14.0124 1.46758 13.7518 1.36974 13.4391 1.28328C13.1265 1.19226 12.7419 1.14676 12.2853 1.14676C11.7344 1.14676 11.2307 1.2355 10.7741 1.41297C10.3175 1.58589 9.92293 1.83845 9.59042 2.17065C9.26286 2.50284 9.00727 2.90785 8.82365 3.38567C8.64002 3.86348 8.54821 4.40273 8.54821 5.00341C8.54821 5.6132 8.6425 6.157 8.83109 6.63481C9.02464 7.11263 9.2852 7.51763 9.61275 7.84983C9.94526 8.17747 10.3349 8.42776 10.7815 8.60068C11.2331 8.77361 11.7195 8.86007 12.2406 8.86007C12.5582 8.86007 12.8436 8.84414 13.0967 8.81229C13.3548 8.77588 13.5905 8.72127 13.8039 8.64846C14.0223 8.57565 14.2233 8.48464 14.4069 8.37543C14.5955 8.26166 14.7816 8.12742 14.9652 7.9727C15.0496 7.90444 15.134 7.87031 15.2183 7.87031Z" fill="url(#paint1_linear_10_18)"/>
<defs>
<linearGradient id="paint0_linear_10_18" x1="0" y1="5" x2="16" y2="5" gradientUnits="userSpaceOnUse">
<stop stop-color="#14213D"/>
<stop offset="1" stop-color="#FCA311"/>
</linearGradient>
<linearGradient id="paint1_linear_10_18" x1="0" y1="5" x2="16" y2="5" gradientUnits="userSpaceOnUse">
<stop stop-color="#14213D"/>
<stop offset="1" stop-color="#FCA311"/>
</linearGradient>
</defs>
</svg>
