<svg id="visual" viewBox="0 0 960 540" width="960" height="540" xmlns="http://www.w3.org/2000/svg" xmlns:xlink="http://www.w3.org/1999/xlink" version="1.1"><rect x="0" y="0" width="960" height="540" fill="#fff"></rect><path d="M0 395L22.8 381.8C45.7 368.7 91.3 342.3 137 335C182.7 327.7 228.3 339.3 274 347C319.7 354.7 365.3 358.3 411.2 353.2C457 348 503 334 548.8 337C594.7 340 640.3 360 686 371.8C731.7 383.7 777.3 387.3 823 382.7C868.7 378 914.3 365 937.2 358.5L960 352L960 541L937.2 541C914.3 541 868.7 541 823 541C777.3 541 731.7 541 686 541C640.3 541 594.7 541 548.8 541C503 541 457 541 411.2 541C365.3 541 319.7 541 274 541C228.3 541 182.7 541 137 541C91.3 541 45.7 541 22.8 541L0 541Z" fill="#e5e5e5"></path><path d="M0 405L22.8 408.3C45.7 411.7 91.3 418.3 137 417C182.7 415.7 228.3 406.3 274 402.7C319.7 399 365.3 401 411.2 399.7C457 398.3 503 393.7 548.8 389.3C594.7 385 640.3 381 686 381.5C731.7 382 777.3 387 823 386C868.7 385 914.3 378 937.2 374.5L960 371L960 541L937.2 541C914.3 541 868.7 541 823 541C777.3 541 731.7 541 686 541C640.3 541 594.7 541 548.8 541C503 541 457 541 411.2 541C365.3 541 319.7 541 274 541C228.3 541 182.7 541 137 541C91.3 541 45.7 541 22.8 541L0 541Z" fill="#adaeb8"></path><path d="M0 403L22.8 403.2C45.7 403.3 91.3 403.7 137 412.8C182.7 422 228.3 440 274 444.8C319.7 449.7 365.3 441.3 411.2 440.5C457 439.7 503 446.3 548.8 444C594.7 441.7 640.3 430.3 686 420.3C731.7 410.3 777.3 401.7 823 401.7C868.7 401.7 914.3 410.3 937.2 414.7L960 419L960 541L937.2 541C914.3 541 868.7 541 823 541C777.3 541 731.7 541 686 541C640.3 541 594.7 541 548.8 541C503 541 457 541 411.2 541C365.3 541 319.7 541 274 541C228.3 541 182.7 541 137 541C91.3 541 45.7 541 22.8 541L0 541Z" fill="#787b8d"></path><path d="M0 444L22.8 445.2C45.7 446.3 91.3 448.7 137 455.5C182.7 462.3 228.3 473.7 274 477.8C319.7 482 365.3 479 411.2 472C457 465 503 454 548.8 447.7C594.7 441.3 640.3 439.7 686 439.8C731.7 440 777.3 442 823 443.2C868.7 444.3 914.3 444.7 937.2 444.8L960 445L960 541L937.2 541C914.3 541 868.7 541 823 541C777.3 541 731.7 541 686 541C640.3 541 594.7 541 548.8 541C503 541 457 541 411.2 541C365.3 541 319.7 541 274 541C228.3 541 182.7 541 137 541C91.3 541 45.7 541 22.8 541L0 541Z" fill="#464c64"></path><path d="M0 501L22.8 497.7C45.7 494.3 91.3 487.7 137 489.2C182.7 490.7 228.3 500.3 274 500.2C319.7 500 365.3 490 411.2 484.3C457 478.7 503 477.3 548.8 479.8C594.7 482.3 640.3 488.7 686 490.8C731.7 493 777.3 491 823 493.2C868.7 495.3 914.3 501.7 937.2 504.8L960 508L960 541L937.2 541C914.3 541 868.7 541 823 541C777.3 541 731.7 541 686 541C640.3 541 594.7 541 548.8 541C503 541 457 541 411.2 541C365.3 541 319.7 541 274 541C228.3 541 182.7 541 137 541C91.3 541 45.7 541 22.8 541L0 541Z" fill="#14213d"></path></svg>