<svg width="48" height="48" viewBox="0 0 48 48" fill="none" xmlns="http://www.w3.org/2000/svg">
<path fill-rule="evenodd" clip-rule="evenodd" d="M2.63604 2.63604C0 5.27208 0 9.51472 0 18V30C0 38.4853 0 42.7279 2.63604 45.364C5.27208 48 9.51472 48 18 48H30C38.4853 48 42.7279 48 45.364 45.364C48 42.7279 48 38.4853 48 30V18C48 9.51472 48 5.27208 45.364 2.63604C42.7279 0 38.4853 0 30 0H18C9.51472 0 5.27208 0 2.63604 2.63604ZM11.9803 15.0365C10.004 15.0365 8.4 13.4161 8.4 11.4182C8.4 9.42041 10.004 7.8 11.9803 7.8C13.9567 7.8 15.5607 9.42041 15.5607 11.4182C15.5607 13.4161 13.9587 15.0365 11.9803 15.0365ZM8.91147 40.2V17.6373H15.0492V40.2H8.91147ZM33.4623 40.2H39.6V26.3363C39.6 15.5616 28.1368 15.9533 25.2787 21.2576V17.6373H19.141V40.2H25.2787V28.7053C25.2787 22.3201 33.4623 21.7971 33.4623 28.7053V40.2Z" fill="white"/>
</svg>
