<svg width="36" height="36" viewBox="0 0 36 36" fill="none" xmlns="http://www.w3.org/2000/svg">
<path fill-rule="evenodd" clip-rule="evenodd" d="M1.95182 1.95182C0 3.90365 0 7.04506 0 13.3279V22.2131C0 28.496 0 31.6374 1.95182 33.5892C3.90365 35.541 7.04506 35.541 13.3279 35.541H22.2131C28.496 35.541 31.6374 35.541 33.5892 33.5892C35.541 31.6374 35.541 28.496 35.541 22.2131V13.3279C35.541 7.04506 35.541 3.90365 33.5892 1.95182C31.6374 0 28.496 0 22.2131 0H13.3279C7.04506 0 3.90365 0 1.95182 1.95182ZM8.87069 11.1336C7.40733 11.1336 6.21968 9.93375 6.21968 8.45449C6.21968 6.97523 7.40733 5.77541 8.87069 5.77541C10.334 5.77541 11.5217 6.97523 11.5217 8.45449C11.5217 9.93375 10.3356 11.1336 8.87069 11.1336ZM6.59839 29.7656V13.0593H11.143V29.7656H6.59839ZM24.7767 29.7656H29.3213V19.5004C29.3213 11.5224 20.8336 11.8124 18.7173 15.7399V13.0593H14.1727V29.7656H18.7173V21.2545C18.7173 16.5267 24.7767 16.1394 24.7767 21.2545V29.7656Z" fill="black"/>
</svg>
