<svg id="visual" viewBox="0 0 900 300" width="900" height="300" xmlns="http://www.w3.org/2000/svg" xmlns:xlink="http://www.w3.org/1999/xlink" version="1.1"><rect x="0" y="0" width="900" height="300" fill="#fff"></rect><path d="M0 134L10.7 158.5C21.3 183 42.7 232 64.2 241.8C85.7 251.7 107.3 222.3 128.8 201.5C150.3 180.7 171.7 168.3 193 165.5C214.3 162.7 235.7 169.3 257 186C278.3 202.7 299.7 229.3 321.2 234.2C342.7 239 364.3 222 385.8 216.7C407.3 211.3 428.7 217.7 450 209C471.3 200.3 492.7 176.7 514.2 166.7C535.7 156.7 557.3 160.3 578.8 172.2C600.3 184 621.7 204 643 202.8C664.3 201.7 685.7 179.3 707 166.5C728.3 153.7 749.7 150.3 771.2 161.3C792.7 172.3 814.3 197.7 835.8 216.5C857.3 235.3 878.7 247.7 889.3 253.8L900 260L900 0L889.3 0C878.7 0 857.3 0 835.8 0C814.3 0 792.7 0 771.2 0C749.7 0 728.3 0 707 0C685.7 0 664.3 0 643 0C621.7 0 600.3 0 578.8 0C557.3 0 535.7 0 514.2 0C492.7 0 471.3 0 450 0C428.7 0 407.3 0 385.8 0C364.3 0 342.7 0 321.2 0C299.7 0 278.3 0 257 0C235.7 0 214.3 0 193 0C171.7 0 150.3 0 128.8 0C107.3 0 85.7 0 64.2 0C42.7 0 21.3 0 10.7 0L0 0Z" fill="#e5e5e5"></path><path d="M0 236L10.7 224.3C21.3 212.7 42.7 189.3 64.2 164.5C85.7 139.7 107.3 113.3 128.8 115.3C150.3 117.3 171.7 147.7 193 167.8C214.3 188 235.7 198 257 204.3C278.3 210.7 299.7 213.3 321.2 218.3C342.7 223.3 364.3 230.7 385.8 222.8C407.3 215 428.7 192 450 166.3C471.3 140.7 492.7 112.3 514.2 114.7C535.7 117 557.3 150 578.8 168.2C600.3 186.3 621.7 189.7 643 173C664.3 156.3 685.7 119.7 707 119.2C728.3 118.7 749.7 154.3 771.2 179.5C792.7 204.7 814.3 219.3 835.8 220.7C857.3 222 878.7 210 889.3 204L900 198L900 0L889.3 0C878.7 0 857.3 0 835.8 0C814.3 0 792.7 0 771.2 0C749.7 0 728.3 0 707 0C685.7 0 664.3 0 643 0C621.7 0 600.3 0 578.8 0C557.3 0 535.7 0 514.2 0C492.7 0 471.3 0 450 0C428.7 0 407.3 0 385.8 0C364.3 0 342.7 0 321.2 0C299.7 0 278.3 0 257 0C235.7 0 214.3 0 193 0C171.7 0 150.3 0 128.8 0C107.3 0 85.7 0 64.2 0C42.7 0 21.3 0 10.7 0L0 0Z" fill="#adaeb8"></path><path d="M0 188L10.7 187.8C21.3 187.7 42.7 187.3 64.2 181.7C85.7 176 107.3 165 128.8 144.8C150.3 124.7 171.7 95.3 193 78.7C214.3 62 235.7 58 257 65.2C278.3 72.3 299.7 90.7 321.2 110C342.7 129.3 364.3 149.7 385.8 149.2C407.3 148.7 428.7 127.3 450 113.3C471.3 99.3 492.7 92.7 514.2 84.5C535.7 76.3 557.3 66.7 578.8 79.2C600.3 91.7 621.7 126.3 643 135.3C664.3 144.3 685.7 127.7 707 129.2C728.3 130.7 749.7 150.3 771.2 161.7C792.7 173 814.3 176 835.8 165C857.3 154 878.7 129 889.3 116.5L900 104L900 0L889.3 0C878.7 0 857.3 0 835.8 0C814.3 0 792.7 0 771.2 0C749.7 0 728.3 0 707 0C685.7 0 664.3 0 643 0C621.7 0 600.3 0 578.8 0C557.3 0 535.7 0 514.2 0C492.7 0 471.3 0 450 0C428.7 0 407.3 0 385.8 0C364.3 0 342.7 0 321.2 0C299.7 0 278.3 0 257 0C235.7 0 214.3 0 193 0C171.7 0 150.3 0 128.8 0C107.3 0 85.7 0 64.2 0C42.7 0 21.3 0 10.7 0L0 0Z" fill="#787b8d"></path><path d="M0 66L10.7 73.8C21.3 81.7 42.7 97.3 64.2 109.3C85.7 121.3 107.3 129.7 128.8 127.5C150.3 125.3 171.7 112.7 193 113.3C214.3 114 235.7 128 257 120C278.3 112 299.7 82 321.2 79.7C342.7 77.3 364.3 102.7 385.8 107C407.3 111.3 428.7 94.7 450 96C471.3 97.3 492.7 116.7 514.2 116.8C535.7 117 557.3 98 578.8 91.5C600.3 85 621.7 91 643 87.8C664.3 84.7 685.7 72.3 707 60.8C728.3 49.3 749.7 38.7 771.2 47.5C792.7 56.3 814.3 84.7 835.8 89.2C857.3 93.7 878.7 74.3 889.3 64.7L900 55L900 0L889.3 0C878.7 0 857.3 0 835.8 0C814.3 0 792.7 0 771.2 0C749.7 0 728.3 0 707 0C685.7 0 664.3 0 643 0C621.7 0 600.3 0 578.8 0C557.3 0 535.7 0 514.2 0C492.7 0 471.3 0 450 0C428.7 0 407.3 0 385.8 0C364.3 0 342.7 0 321.2 0C299.7 0 278.3 0 257 0C235.7 0 214.3 0 193 0C171.7 0 150.3 0 128.8 0C107.3 0 85.7 0 64.2 0C42.7 0 21.3 0 10.7 0L0 0Z" fill="#464c64"></path><path d="M0 42L10.7 49.8C21.3 57.7 42.7 73.3 64.2 75.5C85.7 77.7 107.3 66.3 128.8 53.5C150.3 40.7 171.7 26.3 193 23.7C214.3 21 235.7 30 257 40.5C278.3 51 299.7 63 321.2 65.7C342.7 68.3 364.3 61.7 385.8 63.8C407.3 66 428.7 77 450 76.2C471.3 75.3 492.7 62.7 514.2 51.2C535.7 39.7 557.3 29.3 578.8 33.7C600.3 38 621.7 57 643 55.5C664.3 54 685.7 32 707 26.7C728.3 21.3 749.7 32.7 771.2 32.7C792.7 32.7 814.3 21.3 835.8 23.2C857.3 25 878.7 40 889.3 47.5L900 55L900 0L889.3 0C878.7 0 857.3 0 835.8 0C814.3 0 792.7 0 771.2 0C749.7 0 728.3 0 707 0C685.7 0 664.3 0 643 0C621.7 0 600.3 0 578.8 0C557.3 0 535.7 0 514.2 0C492.7 0 471.3 0 450 0C428.7 0 407.3 0 385.8 0C364.3 0 342.7 0 321.2 0C299.7 0 278.3 0 257 0C235.7 0 214.3 0 193 0C171.7 0 150.3 0 128.8 0C107.3 0 85.7 0 64.2 0C42.7 0 21.3 0 10.7 0L0 0Z" fill="#14213d"></path></svg>