<svg width="45" height="45" viewBox="0 0 45 45" fill="none" xmlns="http://www.w3.org/2000/svg">
<path fill-rule="evenodd" clip-rule="evenodd" d="M5.62989 13.9998C5.79291 14.0005 5.95807 14.0411 6.11064 14.1258L22.5 23.231L38.8894 14.1258C39.0419 14.0411 39.2071 14.0005 39.3701 13.9998C39.3474 12.0622 39.2193 10.9767 38.4963 10.2537C37.6176 9.375 36.2034 9.375 33.375 9.375H11.625C8.79657 9.375 7.38236 9.375 6.50368 10.2537C5.78069 10.9767 5.65259 12.0622 5.62989 13.9998ZM39.375 16.144L23.4713 24.9794C22.8672 25.3149 22.1328 25.3149 21.5287 24.9794L5.625 16.144V29.625C5.625 32.4534 5.625 33.8676 6.50368 34.7463C7.38236 35.625 8.79657 35.625 11.625 35.625H33.375C36.2034 35.625 37.6176 35.625 38.4963 34.7463C39.375 33.8676 39.375 32.4534 39.375 29.625V16.144Z" fill="#222222"/>
</svg>
