<svg width="48" height="48" viewBox="0 0 48 48" fill="none" xmlns="http://www.w3.org/2000/svg">
<g id="Type=Default, showText=False, showSymbol=True">
<path id="Shape" fill-rule="evenodd" clip-rule="evenodd" d="M24.0425 47.3505C23.3977 47.3505 22.796 47.1786 22.2372 46.8777L16.5203 43.482C15.6606 43.0091 16.0905 42.8372 16.3484 42.7512C17.5089 42.3644 17.7239 42.2784 18.9274 41.5907C19.0564 41.5047 19.2283 41.5477 19.3572 41.6337L23.7416 44.2557C23.9135 44.3417 24.1285 44.3417 24.2574 44.2557L41.408 34.3264C41.5799 34.2404 41.6659 34.0685 41.6659 33.8536V14.038C41.6659 13.823 41.5799 13.6511 41.408 13.5651L24.2574 3.67884C24.0855 3.59287 23.8706 3.59287 23.7416 3.67884L6.59101 13.5651C6.41908 13.6511 6.33311 13.866 6.33311 14.038V33.8536C6.33311 34.0255 6.41908 34.2404 6.59101 34.3264L11.2763 37.0344C13.8123 38.3239 15.4027 36.8195 15.4027 35.315V15.7573C15.4027 15.4994 15.6176 15.2415 15.9185 15.2415H18.1107C18.3686 15.2415 18.6265 15.4564 18.6265 15.7573V35.315C18.6265 38.7108 16.7782 40.688 13.5544 40.688C12.5658 40.688 11.7921 40.688 9.59989 39.6134L5.08658 37.0344C3.96899 36.3896 3.28125 35.1861 3.28125 33.8966V14.081C3.28125 12.7914 3.96899 11.5879 5.08658 10.9431L22.2372 1.01383C23.3118 0.412056 24.7732 0.412056 25.8478 1.01383L42.9984 10.9431C44.116 11.5879 44.8037 12.7914 44.8037 14.081V33.8966C44.8037 35.1861 44.116 36.3896 42.9984 37.0344L25.8478 46.9637C25.289 47.2216 24.6443 47.3505 24.0425 47.3505ZM29.3295 33.7246C21.8073 33.7246 20.2599 30.2859 20.2599 27.363C20.2599 27.1051 20.4748 26.8472 20.7757 26.8472H23.0109C23.2688 26.8472 23.4837 27.0191 23.4837 27.277C23.8276 29.5552 24.8162 30.6728 29.3725 30.6728C32.9832 30.6728 34.5306 29.8561 34.5306 27.9218C34.5306 26.8042 34.1007 25.9875 28.4698 25.4287C23.7846 24.9559 20.8617 23.9243 20.8617 20.1847C20.8617 16.703 23.7846 14.6397 28.6848 14.6397C34.1867 14.6397 36.8947 16.531 37.2386 20.6575C37.2386 20.7864 37.1956 20.9154 37.1096 21.0443C37.0236 21.1303 36.8947 21.2163 36.7657 21.2163H34.5306C34.3157 21.2163 34.1007 21.0444 34.0578 20.8294C33.5419 18.4653 32.2094 17.6916 28.6848 17.6916C24.7302 17.6916 24.2574 19.0671 24.2574 20.0987C24.2574 21.3452 24.8162 21.7321 30.1462 22.4198C35.4332 23.1076 37.9263 24.0962 37.9263 27.7928C37.8833 31.5754 34.7885 33.7246 29.3295 33.7246Z" fill="#539E43"/>
</g>
</svg>
