<svg width="48" height="48" viewBox="0 0 48 48" fill="none" xmlns="http://www.w3.org/2000/svg">
<g clip-path="url(#clip0_102_1532)">
<path d="M23.7696 0.1875C11.6136 0.187501 12.3727 5.4591 12.3727 5.4591L12.3862 10.9204H23.9864V12.5602H7.77866C7.77866 12.5602 0 11.678 0 23.9436C-8.67e-07 36.2091 6.78938 35.7742 6.78938 35.7742H10.8413V30.0825C10.8413 30.0825 10.6229 23.2931 17.5223 23.2931H29.0277C29.0277 23.2931 35.4918 23.3976 35.4918 17.0458V6.54323C35.4918 6.54323 36.4732 0.1875 23.7696 0.1875ZM17.3732 3.86C18.5274 3.86 19.4602 4.79282 19.4602 5.94696C19.4602 7.1011 18.5274 8.03391 17.3732 8.03391C16.2191 8.03391 15.2863 7.1011 15.2863 5.94696C15.2863 4.79282 16.2191 3.86 17.3732 3.86Z" fill="url(#paint0_linear_102_1532)"/>
<path d="M24.1148 47.8226C36.2708 47.8226 35.5117 42.551 35.5117 42.551L35.4982 37.0897H23.8979V35.45H40.1057C40.1057 35.45 47.8844 36.3321 47.8844 24.0666C47.8844 11.801 41.095 12.2359 41.095 12.2359H37.0431V17.9276C37.0431 17.9276 37.2615 24.717 30.3621 24.717H18.8567C18.8567 24.717 12.3926 24.6125 12.3926 30.9644V41.4669C12.3926 41.4669 11.4111 47.8226 24.1148 47.8226ZM30.5112 44.1501C29.357 44.1501 28.4242 43.2173 28.4242 42.0632C28.4242 40.909 29.357 39.9762 30.5112 39.9762C31.6653 39.9762 32.5981 40.909 32.5981 42.0632C32.5981 43.2173 31.6653 44.1501 30.5112 44.1501Z" fill="url(#paint1_linear_102_1532)"/>
</g>
<defs>
<linearGradient id="paint0_linear_102_1532" x1="4.60179" y1="4.47215" x2="28.3316" y2="27.9652" gradientUnits="userSpaceOnUse">
<stop stop-color="#387EB8"/>
<stop offset="1" stop-color="#366994"/>
</linearGradient>
<linearGradient id="paint1_linear_102_1532" x1="19.1671" y1="19.5579" x2="44.6504" y2="43.648" gradientUnits="userSpaceOnUse">
<stop stop-color="#FFE052"/>
<stop offset="1" stop-color="#FFC331"/>
</linearGradient>
<clipPath id="clip0_102_1532">
<rect width="48" height="48" fill="white"/>
</clipPath>
</defs>
</svg>
