<svg width="48" height="48" viewBox="0 0 48 48" fill="none" xmlns="http://www.w3.org/2000/svg">
<path d="M39.4656 16.4669C38.9677 16.2955 38.4517 16.1334 37.9205 15.98C38.0078 15.6236 38.0879 15.2719 38.1592 14.9261C39.3288 9.24842 38.5641 4.67442 35.9526 3.16847C33.4486 1.72446 29.3534 3.23007 25.2174 6.82946C24.8197 7.17557 24.4209 7.54202 24.0222 7.92607C23.7566 7.67198 23.4914 7.42642 23.2269 7.19155C18.8923 3.34285 14.5475 1.72095 11.9386 3.23127C9.43695 4.67946 8.6961 8.97945 9.74897 14.3603C9.85065 14.88 9.96949 15.4107 10.1039 15.9504C9.48898 16.1249 8.89535 16.311 8.32735 16.509C3.2455 18.2807 0 21.0575 0 23.9377C0 26.9125 3.48405 29.8962 8.77718 31.7054C9.1949 31.8482 9.62833 31.9831 10.075 32.1113C9.93002 32.6949 9.80391 33.2669 9.69805 33.8247C8.69414 39.1121 9.47813 43.3105 11.9731 44.7496C14.5502 46.2357 18.8753 44.7081 23.0869 41.0267C23.4198 40.7357 23.7538 40.4271 24.0885 40.1036C24.5223 40.5214 24.9554 40.9167 25.3862 41.2875C29.4656 44.7979 33.4946 46.2155 35.9873 44.7724C38.5619 43.282 39.3986 38.7719 38.3123 33.2846C38.2293 32.8656 38.1328 32.4374 38.0244 32.0017C38.3281 31.9119 38.6263 31.8192 38.917 31.7228C44.4197 29.8996 48 26.9522 48 23.9377C48 21.0471 44.6498 18.2516 39.4656 16.4669ZM38.2721 29.7764C38.0097 29.8633 37.7404 29.9473 37.4659 30.0287C36.8585 28.1056 36.0386 26.0606 35.0353 23.9477C35.9927 21.8852 36.7809 19.8664 37.3713 17.9557C37.8624 18.0978 38.3389 18.2477 38.7982 18.4058C43.24 19.9349 45.9495 22.1957 45.9495 23.9377C45.9495 25.7933 43.0233 28.2021 38.2721 29.7764ZM36.3007 33.6829C36.781 36.1093 36.8497 38.303 36.5315 40.0179C36.2456 41.5589 35.6707 42.5863 34.9598 42.9978C33.4471 43.8734 30.2122 42.7353 26.7235 39.7331C26.3235 39.3889 25.9207 39.0215 25.5165 38.6326C26.8691 37.1533 28.2208 35.4337 29.5401 33.5239C31.8605 33.318 34.0528 32.9813 36.0409 32.5218C36.1388 32.9167 36.2258 33.3041 36.3007 33.6829ZM16.3643 42.8465C14.8864 43.3685 13.7093 43.3834 12.9977 42.9731C11.4836 42.0998 10.8542 38.7289 11.7128 34.2071C11.8111 33.6893 11.9282 33.1573 12.0631 32.6136C14.0294 33.0484 16.2056 33.3613 18.5316 33.5498C19.8598 35.4187 21.2506 37.1364 22.6521 38.6405C22.3459 38.9361 22.0409 39.2176 21.7376 39.4828C19.8752 41.1106 18.009 42.2656 16.3643 42.8465ZM9.44037 29.7651C7.09984 28.9651 5.16695 27.9254 3.84204 26.7908C2.65152 25.7713 2.05046 24.7591 2.05046 23.9377C2.05046 22.1899 4.65627 19.9605 9.00232 18.4453C9.52965 18.2614 10.0817 18.0881 10.6545 17.9254C11.2552 19.8792 12.0431 21.922 12.994 23.9876C12.0308 26.084 11.2317 28.1593 10.6252 30.136C10.2168 30.0186 9.82108 29.8951 9.44037 29.7651ZM11.7613 13.9665C10.8593 9.35633 11.4584 5.8786 12.9659 5.00593C14.5718 4.07626 18.1227 5.40177 21.8653 8.72493C22.1045 8.93733 22.3447 9.15965 22.5856 9.38965C21.1909 10.8871 19.8129 12.592 18.4965 14.4498C16.239 14.659 14.0781 14.9952 12.0913 15.4452C11.9664 14.9428 11.8557 14.4491 11.7613 13.9665ZM32.4664 19.0791C31.9914 18.2587 31.5038 17.4577 31.0067 16.6786C32.5382 16.8722 34.0055 17.1292 35.3835 17.4437C34.9698 18.7695 34.4542 20.1558 33.8472 21.5769C33.4118 20.7503 32.9513 19.9168 32.4664 19.0791ZM24.0229 10.8551C24.9687 11.8798 25.9159 13.0238 26.8475 14.2651C25.9087 14.2207 24.9583 14.1977 24 14.1977C23.0508 14.1977 22.1073 14.2202 21.1743 14.2638C22.1069 13.0341 23.0623 11.8916 24.0229 10.8551ZM15.5254 19.0933C15.0509 19.9159 14.5989 20.7449 14.1704 21.5754C13.5732 20.1592 13.0624 18.7666 12.6451 17.422C14.0146 17.1155 15.475 16.8649 16.9968 16.675C16.4927 17.4613 16.0011 18.2682 15.5254 19.0931V19.0933ZM17.0406 31.3468C15.4684 31.1714 13.986 30.9337 12.6168 30.6357C13.0408 29.267 13.5629 27.8447 14.1727 26.3981C14.6024 27.2279 15.0561 28.0572 15.5335 28.8817H15.5336C16.0198 29.7217 16.5235 30.5444 17.0406 31.3468ZM24.0796 37.165C23.1078 36.1164 22.1384 34.9564 21.1916 33.7088C22.1107 33.7448 23.0477 33.7633 24 33.7633C24.9784 33.7633 25.9455 33.7412 26.8975 33.6989C25.9628 34.969 25.019 36.1307 24.0796 37.165ZM33.8668 26.3243C34.5084 27.7866 35.0492 29.2015 35.4786 30.5468C34.0869 30.8643 32.5843 31.12 31.0011 31.3101C31.4994 30.5204 31.9912 29.7057 32.4746 28.8676C32.9635 28.0197 33.4278 27.1705 33.8668 26.3243ZM30.6984 27.8432C29.948 29.1442 29.1777 30.3861 28.3957 31.5584C26.9713 31.6603 25.4998 31.7127 24 31.7127C22.5063 31.7127 21.0533 31.6663 19.6541 31.5755C18.8406 30.3878 18.0535 29.1422 17.308 27.8544H17.3081C16.5646 26.5701 15.8802 25.2749 15.2601 23.987C15.88 22.6961 16.5626 21.3994 17.3019 20.1174L17.3017 20.1177C18.043 18.8322 18.8231 17.5927 19.6292 16.4124C21.0567 16.3045 22.5205 16.2482 23.9999 16.2482H24C25.486 16.2482 26.9518 16.3049 28.3789 16.4138C29.1726 17.5854 29.9474 18.821 30.6916 20.1066C31.4442 21.4066 32.1356 22.6946 32.7609 23.9578C32.1375 25.2427 31.4477 26.5437 30.6984 27.8432ZM34.9284 4.94492C36.5357 5.87185 37.1608 9.61017 36.1509 14.5123C36.0865 14.825 36.014 15.1436 35.9352 15.4665C33.9438 15.007 31.7813 14.6651 29.5172 14.4527C28.1983 12.5745 26.8315 10.867 25.4596 9.38871C25.8285 9.03388 26.1968 8.69554 26.5636 8.37625C30.1073 5.29232 33.4193 4.07472 34.9284 4.94492ZM24 19.6515C26.3672 19.6515 28.2862 21.5705 28.2862 23.9377C28.2862 26.3049 26.3672 28.224 24 28.224C21.6328 28.224 19.7138 26.3049 19.7138 23.9377C19.7138 21.5705 21.6328 19.6515 24 19.6515Z" fill="#00D8FF"/>
</svg>
