<svg id="visual" viewBox="0 0 900 200" width="900" height="200" xmlns="http://www.w3.org/2000/svg" xmlns:xlink="http://www.w3.org/1999/xlink" version="1.1"><rect x="0" y="0" width="900" height="200" fill="#fff"></rect><path d="M0 35L10 42.7C20 50.3 40 65.7 60 70.3C80 75 100 69 120 62C140 55 160 47 180 50.8C200 54.7 220 70.3 240 77.5C260 84.7 280 83.3 300 85.7C320 88 340 94 360 101.8C380 109.7 400 119.3 420 109.2C440 99 460 69 480 57.8C500 46.7 520 54.3 540 69.7C560 85 580 108 600 105.8C620 103.7 640 76.3 660 71.7C680 67 700 85 720 94C740 103 760 103 780 95.3C800 87.7 820 72.3 840 77C860 81.7 880 106.3 890 118.7L900 131L900 201L890 201C880 201 860 201 840 201C820 201 800 201 780 201C760 201 740 201 720 201C700 201 680 201 660 201C640 201 620 201 600 201C580 201 560 201 540 201C520 201 500 201 480 201C460 201 440 201 420 201C400 201 380 201 360 201C340 201 320 201 300 201C280 201 260 201 240 201C220 201 200 201 180 201C160 201 140 201 120 201C100 201 80 201 60 201C40 201 20 201 10 201L0 201Z" fill="#e5e5e5"></path><path d="M0 61L10 74.2C20 87.3 40 113.7 60 115.3C80 117 100 94 120 92C140 90 160 109 180 122.2C200 135.3 220 142.7 240 136.3C260 130 280 110 300 106.2C320 102.3 340 114.7 360 116.7C380 118.7 400 110.3 420 102.3C440 94.3 460 86.7 480 89C500 91.3 520 103.7 540 112.3C560 121 580 126 600 123.2C620 120.3 640 109.7 660 112.2C680 114.7 700 130.3 720 124.8C740 119.3 760 92.7 780 89.2C800 85.7 820 105.3 840 108.8C860 112.3 880 99.7 890 93.3L900 87L900 201L890 201C880 201 860 201 840 201C820 201 800 201 780 201C760 201 740 201 720 201C700 201 680 201 660 201C640 201 620 201 600 201C580 201 560 201 540 201C520 201 500 201 480 201C460 201 440 201 420 201C400 201 380 201 360 201C340 201 320 201 300 201C280 201 260 201 240 201C220 201 200 201 180 201C160 201 140 201 120 201C100 201 80 201 60 201C40 201 20 201 10 201L0 201Z" fill="#b8b9c1"></path><path d="M0 139L10 136.8C20 134.7 40 130.3 60 133.2C80 136 100 146 120 152C140 158 160 160 180 147.8C200 135.7 220 109.3 240 95.2C260 81 280 79 300 90.5C320 102 340 127 360 129.3C380 131.7 400 111.3 420 102.3C440 93.3 460 95.7 480 104.8C500 114 520 130 540 131.8C560 133.7 580 121.3 600 118.3C620 115.3 640 121.7 660 130.2C680 138.7 700 149.3 720 154.5C740 159.7 760 159.3 780 151C800 142.7 820 126.3 840 122.8C860 119.3 880 128.7 890 133.3L900 138L900 201L890 201C880 201 860 201 840 201C820 201 800 201 780 201C760 201 740 201 720 201C700 201 680 201 660 201C640 201 620 201 600 201C580 201 560 201 540 201C520 201 500 201 480 201C460 201 440 201 420 201C400 201 380 201 360 201C340 201 320 201 300 201C280 201 260 201 240 201C220 201 200 201 180 201C160 201 140 201 120 201C100 201 80 201 60 201C40 201 20 201 10 201L0 201Z" fill="#8d8f9e"></path><path d="M0 166L10 166.7C20 167.3 40 168.7 60 165.7C80 162.7 100 155.3 120 149.2C140 143 160 138 180 140C200 142 220 151 240 151.2C260 151.3 280 142.7 300 140.8C320 139 340 144 360 149.5C380 155 400 161 420 164.8C440 168.7 460 170.3 480 167C500 163.7 520 155.3 540 153.8C560 152.3 580 157.7 600 158.8C620 160 640 157 660 146.5C680 136 700 118 720 112.7C740 107.3 760 114.7 780 118.5C800 122.3 820 122.7 840 128.3C860 134 880 145 890 150.5L900 156L900 201L890 201C880 201 860 201 840 201C820 201 800 201 780 201C760 201 740 201 720 201C700 201 680 201 660 201C640 201 620 201 600 201C580 201 560 201 540 201C520 201 500 201 480 201C460 201 440 201 420 201C400 201 380 201 360 201C340 201 320 201 300 201C280 201 260 201 240 201C220 201 200 201 180 201C160 201 140 201 120 201C100 201 80 201 60 201C40 201 20 201 10 201L0 201Z" fill="#64687c"></path><path d="M0 152L10 153.2C20 154.3 40 156.7 60 161.3C80 166 100 173 120 176.7C140 180.3 160 180.7 180 181.3C200 182 220 183 240 175.5C260 168 280 152 300 147.8C320 143.7 340 151.3 360 153.7C380 156 400 153 420 155.5C440 158 460 166 480 165C500 164 520 154 540 149.5C560 145 580 146 600 143.2C620 140.3 640 133.7 660 134.3C680 135 700 143 720 149C740 155 760 159 780 159.3C800 159.7 820 156.3 840 150.7C860 145 880 137 890 133L900 129L900 201L890 201C880 201 860 201 840 201C820 201 800 201 780 201C760 201 740 201 720 201C700 201 680 201 660 201C640 201 620 201 600 201C580 201 560 201 540 201C520 201 500 201 480 201C460 201 440 201 420 201C400 201 380 201 360 201C340 201 320 201 300 201C280 201 260 201 240 201C220 201 200 201 180 201C160 201 140 201 120 201C100 201 80 201 60 201C40 201 20 201 10 201L0 201Z" fill="#3c435c"></path><path d="M0 152L10 155.8C20 159.7 40 167.3 60 174.3C80 181.3 100 187.7 120 185.5C140 183.3 160 172.7 180 171.3C200 170 220 178 240 181C260 184 280 182 300 176.5C320 171 340 162 360 160.3C380 158.7 400 164.3 420 164.2C440 164 460 158 480 155.7C500 153.3 520 154.7 540 157.8C560 161 580 166 600 168C620 170 640 169 660 167.7C680 166.3 700 164.7 720 163.7C740 162.7 760 162.3 780 163C800 163.7 820 165.3 840 171C860 176.7 880 186.3 890 191.2L900 196L900 201L890 201C880 201 860 201 840 201C820 201 800 201 780 201C760 201 740 201 720 201C700 201 680 201 660 201C640 201 620 201 600 201C580 201 560 201 540 201C520 201 500 201 480 201C460 201 440 201 420 201C400 201 380 201 360 201C340 201 320 201 300 201C280 201 260 201 240 201C220 201 200 201 180 201C160 201 140 201 120 201C100 201 80 201 60 201C40 201 20 201 10 201L0 201Z" fill="#14213d"></path></svg>