<svg id="visual" viewBox="0 0 900 200" width="900" height="200" xmlns="http://www.w3.org/2000/svg" xmlns:xlink="http://www.w3.org/1999/xlink" version="1.1"><rect x="0" y="0" width="900" height="200" fill="#fff"></rect><path d="M0 181L10 172.5C20 164 40 147 60 142C80 137 100 144 120 151.8C140 159.7 160 168.3 180 164C200 159.7 220 142.3 240 134.2C260 126 280 127 300 124.3C320 121.7 340 115.3 360 106.8C380 98.3 400 87.7 420 99C440 110.3 460 143.7 480 156C500 168.3 520 159.7 540 142.7C560 125.7 580 100.3 600 102.8C620 105.3 640 135.7 660 140.8C680 146 700 126 720 116C740 106 760 106 780 114.5C800 123 820 140 840 134.7C860 129.3 880 101.7 890 87.8L900 74L900 0L890 0C880 0 860 0 840 0C820 0 800 0 780 0C760 0 740 0 720 0C700 0 680 0 660 0C640 0 620 0 600 0C580 0 560 0 540 0C520 0 500 0 480 0C460 0 440 0 420 0C400 0 380 0 360 0C340 0 320 0 300 0C280 0 260 0 240 0C220 0 200 0 180 0C160 0 140 0 120 0C100 0 80 0 60 0C40 0 20 0 10 0L0 0Z" fill="#e5e5e5"></path><path d="M0 153L10 138.2C20 123.3 40 93.7 60 91.8C80 90 100 116 120 118.3C140 120.7 160 99.3 180 84.5C200 69.7 220 61.3 240 68.3C260 75.3 280 97.7 300 102C320 106.3 340 92.7 360 90.5C380 88.3 400 97.7 420 106.5C440 115.3 460 123.7 480 121.2C500 118.7 520 105.3 540 95.8C560 86.3 580 80.7 600 83.7C620 86.7 640 98.3 660 95.5C680 92.7 700 75.3 720 81.3C740 87.3 760 116.7 780 120.7C800 124.7 820 103.3 840 99.7C860 96 880 110 890 117L900 124L900 0L890 0C880 0 860 0 840 0C820 0 800 0 780 0C760 0 740 0 720 0C700 0 680 0 660 0C640 0 620 0 600 0C580 0 560 0 540 0C520 0 500 0 480 0C460 0 440 0 420 0C400 0 380 0 360 0C340 0 320 0 300 0C280 0 260 0 240 0C220 0 200 0 180 0C160 0 140 0 120 0C100 0 80 0 60 0C40 0 20 0 10 0L0 0Z" fill="#b8b9c1"></path><path d="M0 65L10 67.5C20 70 40 75 60 72C80 69 100 58 120 51.5C140 45 160 43 180 56.5C200 70 220 99 240 114.5C260 130 280 132 300 119.2C320 106.3 340 78.7 360 76.2C380 73.7 400 96.3 420 106.3C440 116.3 460 113.7 480 103.5C500 93.3 520 75.7 540 73.7C560 71.7 580 85.3 600 88.7C620 92 640 85 660 75.7C680 66.3 700 54.7 720 49C740 43.3 760 43.7 780 52.8C800 62 820 80 840 83.8C860 87.7 880 77.3 890 72.2L900 67L900 0L890 0C880 0 860 0 840 0C820 0 800 0 780 0C760 0 740 0 720 0C700 0 680 0 660 0C640 0 620 0 600 0C580 0 560 0 540 0C520 0 500 0 480 0C460 0 440 0 420 0C400 0 380 0 360 0C340 0 320 0 300 0C280 0 260 0 240 0C220 0 200 0 180 0C160 0 140 0 120 0C100 0 80 0 60 0C40 0 20 0 10 0L0 0Z" fill="#8d8f9e"></path><path d="M0 35L10 34.5C20 34 40 33 60 36.3C80 39.7 100 47.3 120 54.2C140 61 160 67 180 64.8C200 62.7 220 52.3 240 52C260 51.7 280 61.3 300 63.5C320 65.7 340 60.3 360 54.2C380 48 400 41 420 36.7C440 32.3 460 30.7 480 34.5C500 38.3 520 47.7 540 49.3C560 51 580 45 600 43.7C620 42.3 640 45.7 660 57.3C680 69 700 89 720 94.8C740 100.7 760 92.3 780 88C800 83.7 820 83.3 840 77.2C860 71 880 59 890 53L900 47L900 0L890 0C880 0 860 0 840 0C820 0 800 0 780 0C760 0 740 0 720 0C700 0 680 0 660 0C640 0 620 0 600 0C580 0 560 0 540 0C520 0 500 0 480 0C460 0 440 0 420 0C400 0 380 0 360 0C340 0 320 0 300 0C280 0 260 0 240 0C220 0 200 0 180 0C160 0 140 0 120 0C100 0 80 0 60 0C40 0 20 0 10 0L0 0Z" fill="#64687c"></path><path d="M0 51L10 49.7C20 48.3 40 45.7 60 40.5C80 35.3 100 27.7 120 23.7C140 19.7 160 19.3 180 18.7C200 18 220 17 240 25.3C260 33.7 280 51.3 300 56C320 60.7 340 52.3 360 49.8C380 47.3 400 50.7 420 47.8C440 45 460 36 480 37C500 38 520 49 540 53.8C560 58.7 580 57.3 600 60.5C620 63.7 640 71.3 660 70.7C680 70 700 61 720 54.3C740 47.7 760 43.3 780 43.2C800 43 820 47 840 53.3C860 59.7 880 68.3 890 72.7L900 77L900 0L890 0C880 0 860 0 840 0C820 0 800 0 780 0C760 0 740 0 720 0C700 0 680 0 660 0C640 0 620 0 600 0C580 0 560 0 540 0C520 0 500 0 480 0C460 0 440 0 420 0C400 0 380 0 360 0C340 0 320 0 300 0C280 0 260 0 240 0C220 0 200 0 180 0C160 0 140 0 120 0C100 0 80 0 60 0C40 0 20 0 10 0L0 0Z" fill="#3c435c"></path><path d="M0 51L10 46.8C20 42.7 40 34.3 60 26.5C80 18.7 100 11.3 120 13.7C140 16 160 28 180 29.5C200 31 220 22 240 18.7C260 15.3 280 17.7 300 24C320 30.3 340 40.7 360 42.5C380 44.3 400 37.7 420 37.8C440 38 460 45 480 47.7C500 50.3 520 48.7 540 45C560 41.3 580 35.7 600 33.3C620 31 640 32 660 33.5C680 35 700 37 720 38.2C740 39.3 760 39.7 780 39C800 38.3 820 36.7 840 30.3C860 24 880 13 890 7.5L900 2L900 0L890 0C880 0 860 0 840 0C820 0 800 0 780 0C760 0 740 0 720 0C700 0 680 0 660 0C640 0 620 0 600 0C580 0 560 0 540 0C520 0 500 0 480 0C460 0 440 0 420 0C400 0 380 0 360 0C340 0 320 0 300 0C280 0 260 0 240 0C220 0 200 0 180 0C160 0 140 0 120 0C100 0 80 0 60 0C40 0 20 0 10 0L0 0Z" fill="#14213d"></path></svg>