<svg id="visual" viewBox="0 0 960 540" width="960" height="540" xmlns="http://www.w3.org/2000/svg" xmlns:xlink="http://www.w3.org/1999/xlink" version="1.1"><rect x="0" y="0" width="960" height="540" fill="#fff"></rect><path d="M0 327L22.8 338.5C45.7 350 91.3 373 137 374.7C182.7 376.3 228.3 356.7 274 354.2C319.7 351.7 365.3 366.3 411.2 365.7C457 365 503 349 548.8 341.2C594.7 333.3 640.3 333.7 686 344.2C731.7 354.7 777.3 375.3 823 376.7C868.7 378 914.3 360 937.2 351L960 342L960 541L937.2 541C914.3 541 868.7 541 823 541C777.3 541 731.7 541 686 541C640.3 541 594.7 541 548.8 541C503 541 457 541 411.2 541C365.3 541 319.7 541 274 541C228.3 541 182.7 541 137 541C91.3 541 45.7 541 22.8 541L0 541Z" fill="#000000"></path><path d="M0 357L22.8 363.5C45.7 370 91.3 383 137 394.3C182.7 405.7 228.3 415.3 274 415.3C319.7 415.3 365.3 405.7 411.2 397.7C457 389.7 503 383.3 548.8 380.7C594.7 378 640.3 379 686 376.3C731.7 373.7 777.3 367.3 823 373.8C868.7 380.3 914.3 399.7 937.2 409.3L960 419L960 541L937.2 541C914.3 541 868.7 541 823 541C777.3 541 731.7 541 686 541C640.3 541 594.7 541 548.8 541C503 541 457 541 411.2 541C365.3 541 319.7 541 274 541C228.3 541 182.7 541 137 541C91.3 541 45.7 541 22.8 541L0 541Z" fill="#000b27"></path><path d="M0 456L22.8 448.8C45.7 441.7 91.3 427.3 137 424.5C182.7 421.7 228.3 430.3 274 427C319.7 423.7 365.3 408.3 411.2 406.7C457 405 503 417 548.8 421.7C594.7 426.3 640.3 423.7 686 417.8C731.7 412 777.3 403 823 400.7C868.7 398.3 914.3 402.7 937.2 404.8L960 407L960 541L937.2 541C914.3 541 868.7 541 823 541C777.3 541 731.7 541 686 541C640.3 541 594.7 541 548.8 541C503 541 457 541 411.2 541C365.3 541 319.7 541 274 541C228.3 541 182.7 541 137 541C91.3 541 45.7 541 22.8 541L0 541Z" fill="#04142e"></path><path d="M0 438L22.8 443.7C45.7 449.3 91.3 460.7 137 460.8C182.7 461 228.3 450 274 448.8C319.7 447.7 365.3 456.3 411.2 458.8C457 461.3 503 457.7 548.8 452.5C594.7 447.3 640.3 440.7 686 441.7C731.7 442.7 777.3 451.3 823 451.2C868.7 451 914.3 442 937.2 437.5L960 433L960 541L937.2 541C914.3 541 868.7 541 823 541C777.3 541 731.7 541 686 541C640.3 541 594.7 541 548.8 541C503 541 457 541 411.2 541C365.3 541 319.7 541 274 541C228.3 541 182.7 541 137 541C91.3 541 45.7 541 22.8 541L0 541Z" fill="#0c1b35"></path><path d="M0 511L22.8 509.2C45.7 507.3 91.3 503.7 137 498.7C182.7 493.7 228.3 487.3 274 489.7C319.7 492 365.3 503 411.2 507.2C457 511.3 503 508.7 548.8 505.8C594.7 503 640.3 500 686 498.3C731.7 496.7 777.3 496.3 823 496.3C868.7 496.3 914.3 496.7 937.2 496.8L960 497L960 541L937.2 541C914.3 541 868.7 541 823 541C777.3 541 731.7 541 686 541C640.3 541 594.7 541 548.8 541C503 541 457 541 411.2 541C365.3 541 319.7 541 274 541C228.3 541 182.7 541 137 541C91.3 541 45.7 541 22.8 541L0 541Z" fill="#14213d"></path></svg>